<svg xmlns="http://www.w3.org/2000/svg" viewBox="0 0 100 100"><g class="nc-icon-wrapper"><defs/><circle class="a" cx="50" cy="50" r="40" fill="#e8f4fa" stroke="#daedf7" stroke-miterlimit="10"/><ellipse class="b" cx="49.363" cy="80.305" rx="16.8" ry="1.575" fill="#45413c" opacity="0.15"/><path class="c" d="M82.664 70.035a3 3 0 0 1-3 3H20.569a3 3 0 0 1-3-3V28.972h65.1z" style="" fill="#00b8f0"/><path class="d" d="M25.576 73.039l44.067-44.067H17.564v41.063a3 3 0 0 0 3 3z" style="" fill="#4acfff"/><path class="e" d="M79.66 19.958H20.569a3 3 0 0 0-3 3.005v6.009h65.1v-6.009a3 3 0 0 0-3.009-3.005z" fill="#fff" stroke="#45413c" stroke-linecap="round" stroke-linejoin="round"/><path class="f" d="M82.664 70.035a3 3 0 0 1-3 3H20.569a3 3 0 0 1-3-3V28.972h65.1z" stroke="#45413c" stroke-linecap="round" stroke-linejoin="round" fill="none"/><circle class="g" cx="22.071" cy="24.465" r="1.575" stroke-linecap="round" stroke-linejoin="round" fill="#ff6242" stroke="#ff6242"/><circle class="h" cx="28.371" cy="24.465" r="1.575" stroke-linecap="round" stroke-linejoin="round" fill="#ffe500" stroke="#ffe500"/><circle class="i" cx="34.671" cy="24.465" r="1.575" stroke-linecap="round" stroke-linejoin="round" fill="#6dd627" stroke="#6dd627"/><rect class="j" x="20.569" y="34.48" width="6.009" height="30.046" rx="1.002" fill="#e8f4fa" stroke="#45413c" stroke-linecap="round" stroke-linejoin="round"/><path class="k" d="M69.9 73.04H29.833V39.488a1 1 0 0 1 1-1h38.06a1 1 0 0 1 1 1z" stroke="#45413c" stroke-linecap="round" stroke-linejoin="round" fill="#e5f8ff"/><path class="l" d="M60.13 38.487l-30.3 30.3V39.488a1 1 0 0 1 1-1z" style="" fill="#fff"/><path class="f" d="M69.9 73.04H29.833V39.488a1 1 0 0 1 1-1h38.06a1 1 0 0 1 1 1z" stroke="#45413c" stroke-linecap="round" stroke-linejoin="round" fill="none"/><path class="e" d="M20.569 39.488h6.009" fill="#fff" stroke="#45413c" stroke-linecap="round" stroke-linejoin="round"/><path class="e" d="M20.569 44.496h6.009" fill="#fff" stroke="#45413c" stroke-linecap="round" stroke-linejoin="round"/><path class="e" d="M20.569 49.504h6.009" fill="#fff" stroke="#45413c" stroke-linecap="round" stroke-linejoin="round"/><path class="e" d="M20.569 54.511h6.009" fill="#fff" stroke="#45413c" stroke-linecap="round" stroke-linejoin="round"/><path class="e" d="M20.569 59.519h6.009" fill="#fff" stroke="#45413c" stroke-linecap="round" stroke-linejoin="round"/><path class="m" d="M78.908 38.987H72.9V33.98a1 1 0 0 1 1-1h4.006a1 1 0 0 1 1 1z" stroke="#45413c" stroke-linecap="round" stroke-linejoin="round" fill="#ff6242"/><path class="n" d="M72.899 38.987h6.009v6.009h-6.009z" stroke="#45413c" stroke-linecap="round" stroke-linejoin="round" fill="#ffaa54"/><path class="o" d="M72.899 44.997h6.009v6.009h-6.009z" stroke="#45413c" stroke-linecap="round" stroke-linejoin="round" fill="#fff48c"/><path class="p" d="M72.899 51.006h6.009v6.009h-6.009z" stroke="#45413c" stroke-linecap="round" stroke-linejoin="round" fill="#9ceb60"/><path class="q" d="M72.899 57.015h6.009v6.009h-6.009z" stroke="#45413c" stroke-linecap="round" stroke-linejoin="round" fill="#bf8df2"/><path class="r" d="M78.908 68.032a1 1 0 0 1-1 1H73.9a1 1 0 0 1-1-1v-5.008h6.009z" stroke="#45413c" stroke-linecap="round" stroke-linejoin="round" fill="#656769"/><path class="s" d="M60.333 51.809a.25.25 0 0 0-.306.306l1.55 5.891a.251.251 0 0 0 .423.114l1.463-1.463 1.947 1.948a.25.25 0 0 0 .354 0l1.062-1.062a.251.251 0 0 0 0-.355l-1.947-1.947 1.77-1.771z" fill="#45413c" opacity="0.3"/><g><path class="t" d="M59.651 42.612v26.541" stroke-linecap="round" stroke-linejoin="round" fill="none" stroke="#4acfff"/><path class="t" d="M40.349 42.612v26.541" stroke-linecap="round" stroke-linejoin="round" fill="none" stroke="#4acfff"/><path class="t" d="M45.174 42.612v26.541" stroke-linecap="round" stroke-linejoin="round" fill="none" stroke="#4acfff"/><path class="t" d="M50 42.612v26.541" stroke-linecap="round" stroke-linejoin="round" fill="none" stroke="#4acfff"/><path class="t" d="M54.825 42.612v26.541" stroke-linecap="round" stroke-linejoin="round" fill="none" stroke="#4acfff"/><path class="t" d="M63.27 46.231H36.729" stroke-linecap="round" stroke-linejoin="round" fill="none" stroke="#4acfff"/><path class="t" d="M63.27 51.057H36.729" stroke-linecap="round" stroke-linejoin="round" fill="none" stroke="#4acfff"/><path class="t" d="M63.27 55.882H36.729" stroke-linecap="round" stroke-linejoin="round" fill="none" stroke="#4acfff"/><path class="t" d="M63.27 60.708H36.729" stroke-linecap="round" stroke-linejoin="round" fill="none" stroke="#4acfff"/><path class="t" d="M63.27 65.533H36.729" stroke-linecap="round" stroke-linejoin="round" fill="none" stroke="#4acfff"/></g><path class="e" d="M60.38 49.504l1.77 6.727 1.771-1.77 2.125 2.124 1.416-1.416-2.125-2.124 1.771-1.771-6.728-1.77z" fill="#fff" stroke="#45413c" stroke-linecap="round" stroke-linejoin="round"/></g></svg>